<svg xmlns="http://www.w3.org/2000/svg" width="1500" height="465"><g transform="translate(-.91 -.166)"><svg viewBox="0 0 396 123" data-background-color="#ffffff" height="465" width="1500" xmlns="http://www.w3.org/2000/svg" xmlns:xlink="http://www.w3.org/1999/xlink"><g transform="translate(.24 .044)"><svg viewBox="0 0 395.52 122.912" height="122.912" width="395.52"><g><svg viewBox="0 0 613.789 190.741" height="122.912" width="395.52"><g transform="translate(216.291 58.942)"><svg viewBox="0 0 397.498 72.858" height="72.858" width="397.498"><g><svg viewBox="0 0 397.498 72.858" height="72.858" width="397.498"><g><rect width="397.498" height="3.478" y="42.666" class="rect-yte-0" data-fill-palette-color="primary" rx="1%" data-palette-color="#000000"/></g><g transform="translate(.989)"><svg viewBox="0 0 395.52 38.568" height="38.568" width="395.52"><g><svg width="395.52" viewBox="-0.5 -32.8 484.49 47.25" height="38.568" data-palette-color="#000000"><path d="M14.25-18.8q2.25 1.65 3.57 4.07 1.33 2.43 1.33 5.58 0 1.9-.45 3.95-.45 2.05-1.4 3.55-.85.6-3.32 1.17Q11.5.1 9 .1 5.25.1 3.38-1.8 1.5-3.7 1.5-6.75q0-1.95.8-4.08.8-2.12 2.25-4.07-.1-1.6-.1-2.55 0-2.2.3-4.05l.25-.2q5.6.1 9.25 2.9ZM8.4-8.9q.9.1 1.5.1 2.05 0 4.35-.4 0-.5-1.42-1.03-1.43-.52-3.2-.87-1.78-.35-2.43-.35-.5.65-.5 1.25 0 1.1 1.7 1.3Zm6.15-20q.1.75-1.1 2.45-1.2 1.7-2.05 2.3-.95-.4-2.4-1.38-1.45-.97-2.15-1.77-.5.9-1.3 1.85-.8.95-1.3 1.3-1-.45-2.55-1.53Q.15-26.75-.5-27.5q.3-1.05 1.5-2.8 1.2-1.75 2-1.75t2.4 1.12Q7-29.8 7.35-29.05q.7-1.25 1.45-2.13.75-.87 1.35-.87.8 0 2.53 1.22 1.72 1.23 1.87 1.93Zm19.9 4.4q2.55 3.8 4.12 8 1.58 4.2 1.58 8.4 0 3.3-1.1 6.45Q37.6-1 34.22-.43q-3.37.58-6.72.58-3.15 0-5.35-.55.15-4.35 1.65-8.9 2.75.25 5.2.25 2.15 0 4.1-.15-1.9-4.95-5.55-9.45l6.9-5.85Zm17.25 5.45q2.45 0 4.15 1.73 1.7 1.72 2.49 4.37.81 2.65.66 5.25-.25 5.45-2.95 10.9t-5.85 9.2q-1.6-.6-3.98-2.17-2.37-1.58-3.57-2.93.15-.2.37-.4.23-.2.43-.45 4.2-4.35 6.3-7.5-2.95-.65-4.95-2.48-2-1.82-2-4.57 0-2.45 1.35-5.03 1.35-2.57 3.42-4.25 2.08-1.67 4.13-1.67Zm-1.2 9.9Q51.7-9 53-9q1.1 0 1.6-.05-.85-1.05-2.13-1.73-1.27-.67-2.47-.67-.9 0-1.48.37-.57.38-.57 1.08.3.55 2.55.85Zm33.99-.15q.8 0 1.08 1.15.27 1.15.27 3.5 0 2.4-.3 3.52Q85.24 0 84.49 0q-1.95 0-3.97-.98-2.03-.97-3.78-2.92-.6.95-1.85 2.75-1.3.6-3.42 1-2.13.4-4.58.4-3.05 0-5.4-.65.2-4.6 1.65-8.9 2.6.25 4.45.25 2.95 0 5.5-.55-2.7-4.8-6-9.05l6.9-5.85q1.8 2.55 2.93 4.85 1.12 2.3 2.62 5.9.8 1.85 1.4 2.75.6.9 1.4 1.3.8.4 2.15.4Zm28 0q.8 0 1.08 1.15.27 1.15.27 3.5 0 2.4-.3 3.52-.3 1.13-1.05 1.13-2.8 0-5.27-1.2-2.48-1.2-3.68-3.4-2.65.15-5.55 1.2-1.35.5-2.5.95-3.05 1.2-5.45 1.82-2.4.63-5.55.63-.75 0-1.05-1.13-.3-1.12-.3-3.52 0-2.35.28-3.5.27-1.15 1.07-1.15 2.7 0 4.63-.35 1.92-.35 5.07-1.1l1.25-.3 3.1-.7q-1.9-1.05-3.2-1.55-1.4-.55-3-.78-1.6-.22-4.15-.37l-1.1-.05-.2-.2q.2-1.9.78-4.23.57-2.32 1.12-3.42 1.05-.15 1.95-.15 1.85 0 3.45.57 1.6.58 3.25 1.63l1.75 1.15q4.2 2.7 6.35 3.97 2.15 1.28 3.05 1.28-.15 2.5-.5 4.25 1.85.35 4.4.35Zm13.9.85 5.05 1.6q-.2 2.7-1.4 5.52-1.2 2.83-3.3 4.63-1.75 0-3.15-.92-1.4-.93-2.6-3.33-1.9.6-3.98.77-2.07.18-4.52.18-.75 0-1.05-1.13-.3-1.12-.3-3.52 0-2.35.27-3.5.28-1.15 1.08-1.15 5.2 0 7-.3-.1-3-.48-7.13-.37-4.12-.77-8.22l-.3-2.9 8.1-.45.15 2.25q.05.55.27 4.12.23 3.58.23 7.13 0 3.95-.3 6.35Zm8.7 8.6-.31-.25q.25-4 .25-8.3 0-8.05-.59-19.45l8.09-.45q.66 9.6.66 18.2 0 5.45-.2 8.85-1.05.6-3.36.97-2.29.38-4.54.43Zm42.09-9.45q.8 0 1.07 1.15.28 1.15.28 3.5 0 2.4-.3 3.52-.3 1.13-1.05 1.13-1.95 0-3.97-.98-2.03-.97-3.78-2.92-.6.95-1.85 2.75-1.3.6-3.42 1-2.13.4-4.58.4-3.05 0-5.4-.65.2-4.6 1.65-8.9 2.6.25 4.45.25 2.95 0 5.5-.55-2.7-4.8-6-9.05l6.9-5.85q1.8 2.55 2.93 4.85 1.12 2.3 2.62 5.9.8 1.85 1.4 2.75.6.9 1.4 1.3.8.4 2.15.4Zm19.55 0q.8 0 1.07 1.15.28 1.15.28 3.5 0 2.4-.3 3.52-.3 1.13-1.05 1.13-2.25 0-4.38-.93-2.12-.92-3.37-2.57h-.45q-2.55 2.1-5.43 2.8-2.87.7-5.92.7-.75 0-1.05-1.13-.3-1.12-.3-3.52 0-2.35.27-3.5.28-1.15 1.08-1.15 3.9 0 6.45-1.13 2.55-1.12 3.95-4.17l4.2.65q-.05.4-.05 1.1 0 2.1 1.1 2.82 1.1.73 3.9.73Zm-4.5 15.95q.1.75-1.1 2.45-1.2 1.7-2.05 2.3-.95-.4-2.4-1.37-1.45-.98-2.15-1.78-.5.9-1.3 1.85-.8.95-1.3 1.3-1-.45-2.55-1.52-1.55-1.08-2.2-1.83.3-1.05 1.5-2.8 1.2-1.75 2-1.75t2.4 1.13q1.6 1.12 1.95 1.87.7-1.25 1.45-2.12.75-.88 1.35-.88.8 0 2.52 1.23 1.73 1.22 1.88 1.92Zm23.1-15.95q.8 0 1.07 1.15.28 1.15.28 3.5 0 2.4-.3 3.52-.3 1.13-1.05 1.13-2.4 0-3.98-.48-1.57-.47-2.45-1.12-.87-.65-1.87-1.7-2.2 1.5-5.25 2.4-3.05.9-5.05.9-.75 0-1.05-1.13-.3-1.12-.3-3.52 0-2.35.27-3.5.28-1.15 1.08-1.15 4.3 0 6.7-.6-1.4-2.95-4.65-2.95-.35-.5-.65-2.33-.3-1.82-.2-3.17 4.95-2.15 9.35-2.15 3.25 0 5.17 1.35 1.93 1.35 1.93 4-1.1 2.8-3.1 5.6 1.45.25 3.6.25h.45Zm36.14 0q.8 0 1.08 1.15.27 1.15.27 3.5 0 2.4-.3 3.52-.3 1.13-1.05 1.13-2 0-3.72-.75-1.73-.75-3.03-2.75h-.45q-.5 1.8-1.65 2.75t-2.7.95q-2.95 0-4.35-3.7h-.45q-1.05 1.8-2.82 2.75-1.78.95-3.78.95-1.95 0-3.65-.93-1.7-.92-2.8-2.77h-.45q-1.05 1.65-2.72 2.57-1.68.93-3.58.93-.75 0-1.05-1.13-.3-1.12-.3-3.52 0-2.35.28-3.5.27-1.15 1.07-1.15 5.45 0 6.15-5.4h4.15q.2 3.15 1.1 4.42.9 1.28 2.5 1.28 2.2 0 3.28-1.63 1.07-1.62 1.67-3.97l4.2.65q-.05.4-.05 1.1 0 1.85.68 2.8.67.95 1.77.95 2.6 0 2.85-5.6h4.2q0 2.15.2 3.22.2 1.08.98 1.63.77.55 2.47.55Zm12.05-19q.7 11.7.7 17.15 0 2.95-.45 5.4t-1.6 4.5q-3.45 1.1-10.7 1.25-.75 0-1.05-1.13-.3-1.12-.3-3.52 0-2.35.28-3.5.27-1.15 1.07-1.15 3.3 0 5.55-.2-.1-3-.47-7.15-.38-4.15-.78-8.25l-.3-2.95 8.05-.45ZM268.37.15l-.3-.25q.25-4 .25-8.3 0-8.05-.6-19.45l8.1-.45q.65 9.6.65 18.2 0 5.45-.2 8.85-1.05.6-3.35.97-2.3.38-4.55.43Zm46.04-9.45q.8 0 1.08 1.15.27 1.15.27 3.5 0 2.4-.3 3.52-.3 1.13-1.05 1.13-3.3 0-5.6-2.05l-.55.4q-1.35.95-3.45 1.35-2.1.4-5.35.4-1.9 0-4.25-.15.1 3.55.58 7.1.47 3.55 1.12 6.05-1.1.6-3.42.98-2.33.37-4.48.37l-.25-.2q-1.3-6.1-1.3-12.7 0-2.65.2-4.6.35-1.7 1.8-3.7 1.45-2 2.9-2.45l2 .1q-.05-.3-.05-.9 0-2.05 1.03-4.13 1.02-2.07 3.07-3.47 2.05-1.4 4.95-1.4 2.65 0 4.4 1.45 1.75 1.45 2.55 4.05v.05l.1.3q.65 2.1 1.53 2.97.87.88 2.47.88Zm-15.4.45q1.5.25 3.25.25 1.7 0 3.08-.25 1.37-.25 1.62-.6-.15-.65-1.07-1.18-.93-.52-2.38-.52-1.4 0-2.72.5-1.33.5-1.78 1.8Zm43.4-.45q.8 0 1.08 1.15.27 1.15.27 3.5 0 2.4-.3 3.52-.3 1.13-1.05 1.13-2.8 0-5.27-1.2-2.48-1.2-3.68-3.4-2.65.15-5.55 1.2-1.35.5-2.5.95-3.05 1.2-5.45 1.82-2.4.63-5.55.63-.75 0-1.05-1.13-.3-1.12-.3-3.52 0-2.35.28-3.5.27-1.15 1.07-1.15 2.7 0 4.63-.35 1.92-.35 5.07-1.1l1.25-.3 3.1-.7q-1.9-1.05-3.2-1.55-1.4-.55-3-.78-1.6-.22-4.15-.37l-1.1-.05-.2-.2q.2-1.9.78-4.23.57-2.32 1.12-3.42 1.05-.15 1.95-.15 1.85 0 3.45.57 1.6.58 3.25 1.63l1.75 1.15q4.2 2.7 6.35 3.97 2.15 1.28 3.05 1.28-.15 2.5-.5 4.25 1.85.35 4.4.35Zm-14.6 19.75q-1.05-.4-2.75-1.57-1.7-1.18-2.35-2.03.15-.65.78-1.77.62-1.13 1.42-2.05.8-.93 1.4-1.03.55-.1 1.68.5 1.12.6 2.1 1.48.97.87 1.07 1.37.2.75-1.12 2.63-1.33 1.87-2.23 2.47Zm30.4-19.75q.8 0 1.07 1.15.28 1.15.28 3.5 0 2.4-.3 3.52-.3 1.13-1.05 1.13-2.1 0-4.03-.8-1.92-.8-3.02-2.7h-.4q-1.35 1.95-3.48 2.72-2.12.78-4.87.78-.75 0-1.05-1.13-.3-1.12-.3-3.52 0-2.35.27-3.5.28-1.15 1.08-1.15 2.8 0 4.72-1.25 1.93-1.25 2.63-4.05l4.25.65q-.05.4-.05 1.15 0 2.1.92 2.8.93.7 3.33.7Zm-7.6-8.8q-1.05-.4-2.75-1.58-1.7-1.17-2.35-2.02.15-.65.77-1.78.63-1.12 1.43-2.05.8-.92 1.4-1.02.55-.1 1.67.5 1.13.6 2.1 1.47.98.88 1.08 1.38.2.75-1.13 2.62-1.32 1.88-2.22 2.48Zm19.65-10.2q.7 11.7.7 17.15 0 2.95-.45 5.4t-1.6 4.5q-3.45 1.1-10.7 1.25-.75 0-1.05-1.13-.3-1.12-.3-3.52 0-2.35.27-3.5.28-1.15 1.08-1.15 3.3 0 5.55-.2-.1-3-.48-7.15-.37-4.15-.77-8.25l-.3-2.95 8.05-.45ZM375.1.15l-.3-.25q.25-4 .25-8.3 0-8.05-.6-19.45l8.1-.45q.65 9.6.65 18.2 0 5.45-.2 8.85-1.05.6-3.35.97-2.3.38-4.55.43Zm40.05-9.45q.8 0 1.07 1.15.28 1.15.28 3.5 0 2.4-.3 3.52Q415.9 0 415.15 0q-2.7 0-5.08-1-2.37-1-3.57-3.4-3.25 1.8-6.4 1.8-2.25-.7-4.08-2.75-1.82-2.05-1.82-4.9 0-2.55 1.57-4.55 1.58-2 3.08-2.98 1.5-.97 4.4-2.57l.5-.88q.3-.52.55-.77 1.2-.4 3.47-.83 2.28-.42 3.58-.42l.4.35q.1 5.55.5 10.6.15 1.65.82 2.32.68.68 2.08.68ZM400-11.85q1.05.45 2.45.45.5 0 2-.2-.2-1.4-.3-2.95-1.4.6-2.4 1.2t-1.75 1.5Zm14.6-17.8q.1.75-1.1 2.45-1.2 1.7-2.05 2.3-.95-.4-2.4-1.38-1.45-.97-2.15-1.77-.5.9-1.3 1.85-.8.95-1.3 1.3-1-.45-2.55-1.53-1.55-1.07-2.2-1.82.3-1.05 1.5-2.8 1.2-1.75 2-1.75t2.4 1.12q1.6 1.13 1.95 1.88.7-1.25 1.45-2.13.75-.87 1.35-.87.8 0 2.52 1.22 1.73 1.23 1.88 1.93Zm20.7.2v8.25l-6.85 2.15q4.5 6.7 4.5 12.6 0 1.25-.25 2.35t-.85 2.55q-3.6.85-7.4 1.2-3.8.35-9.3.35-.75 0-1.05-1.13-.3-1.12-.3-3.52 0-2.35.27-3.5.28-1.15 1.08-1.15 5.95 0 10.1-.4-2.95-3.95-6.55-6.25V-24l15.9-5.95.7.5Zm33.04 4.25q-.9-.4-2.4-1.45-1.5-1.05-2.15-1.75.15-.6.75-1.65.6-1.05 1.33-1.85.72-.8 1.27-.8.8 0 2.43 1.15 1.62 1.15 1.77 1.8.1.7-1.05 2.35-1.15 1.65-1.95 2.2Zm-3 7.2q-.95-.4-2.52-1.5-1.58-1.1-2.23-1.85.25-1 1.43-2.68 1.17-1.67 1.97-1.82.7-.15 2.38 1 1.67 1.15 2.07 1.95.65-1.2 1.45-2.08.8-.87 1.4-.87.85 0 2.53 1.22 1.67 1.23 1.82 1.93.1.75-1.1 2.45-1.2 1.7-2.05 2.25-.85-.35-2.3-1.33-1.45-.97-2.25-1.77-.5.9-1.3 1.82-.8.93-1.3 1.28Zm17.7.9q.95 2.85.95 6.6 0 2.65-.52 5.05-.53 2.4-1.53 4Q478.34.3 475.39.3q-4.4 0-7.25-3.8h-.4q-.75 1.45-2.42 2.55-1.68 1.1-3.73 1.1-1.55 0-3.22-1.38-1.68-1.37-2.63-4.22-2.05.75-3.65 1.07-1.6.33-3.25.43-1.05 3.6-2.57 7.3-1.53 3.7-2.88 6.38-1.35 2.67-1.7 3.07-1.75-.65-4.12-2.22-2.38-1.58-3.48-2.88 3.6-5.4 5.93-10.03 2.32-4.62 4.02-10.22 3.4.05 7.13-.58 3.72-.62 6.62-1.77.9 2.9 1.85 4.35.95 1.45 2.3 1.45 1.8 0 3.13-1.5 1.32-1.5 1.77-4l4.2.65q-.05.45-.05 1.2 0 3.9 3.35 3.9 1.1 0 2.5-.35-.35-1.9-1-3.75t-.8-2.3l8-1.85Z" class="wordmark-text-0" data-fill-palette-color="primary"/></svg></g></svg></g><g transform="translate(40.54 50.241)"><svg viewBox="0 0 316.416 22.617" height="22.617" width="316.416"><g><svg width="316.416" viewBox="1.3 -35.7 660.29 47.2" height="22.617" data-palette-color="#001f3f"><path d="M4.95 0H1.3l13.45-35h3.1L31.3 0h-3.65l-6.2-16.4H10.1L4.95 0ZM15.4-32.4h-.3l-4.65 14.8H21l-5.6-14.8ZM39.4 0v-35h3.4v34q.95 0 3-.3l8.3-1.25V0H39.4Zm39.19 0h-3.4l1.25-35.7h.6l25.15 30.4h.3l-1.1-29.7h3.4L103.54.7h-.6L77.79-29.7h-.3L78.59 0Zm36.9 0h-3.65l13.45-35h3.1l13.45 35h-3.65l-6.2-16.4h-11.35L115.49 0Zm10.45-32.4h-.3l-4.65 14.8h10.55l-5.6-14.8Zm24 29.3V-35h3.4v31.6q0 6.3-1.75 9.8-1.75 3.5-5.35 5.1l-.15-.25q2-1.4 2.92-4.72.93-3.33.93-9.63ZM195.69-35h3.6V0h-3.4v-32.1h-.3l-12.1 23.2h-1.55l-13.75-20.45h-.3L168.99 0h-3.4l1.25-35.7h1l15.75 23.4h.3l11.8-22.7Zm28.54 35h-3.65l13.45-35h3.1l13.45 35h-3.65l-6.2-16.4h-11.35L224.23 0Zm10.45-32.4h-.3l-4.65 14.8h10.55l-5.6-14.8Zm24 32.4v-35h3.4v34q.95 0 3-.3l8.3-1.25V0h-14.7Zm33.49-1.1.3-3h.3q1.95 1.7 4.4 2.65t4.85.95q3.4 0 5.5-1.88 2.1-1.87 2.1-5.02 0-1.75-.77-3.25-.78-1.5-2.55-3.05-1.78-1.55-4.88-3.35-2.15-1.25-4.1-2.63-1.95-1.37-3.2-3.2-1.25-1.82-1.25-4.37 0-3.8 2.75-6.13 2.75-2.32 7.25-2.32 2 0 4.3.43 2.3.42 3.55 1.07l-.25 2.8h-.3q-2.85-3.1-7.3-3.1-3.2 0-5.15 1.62-1.95 1.63-1.95 4.38 0 2.05 1.08 3.52 1.07 1.48 2.77 2.65 1.7 1.18 3.65 2.28 2.25 1.3 4.38 2.75 2.12 1.45 3.5 3.47 1.37 2.03 1.37 5.08 0 2.8-1.3 4.92-1.3 2.13-3.67 3.33-2.38 1.2-5.53 1.2-2 0-4.7-.5t-5.15-1.3ZM320.82 0h-3.65l13.45-35h3.1l13.45 35h-3.65l-6.2-16.4h-11.35L320.82 0Zm10.45-32.4h-.3l-4.65 14.8h10.55l-5.6-14.8ZM370.67 0h-15.4v-35h15.25v2.45l-8.75-1.15q-2.3-.3-3.1-.3v15.25q.65 0 3.1-.15l8.2-.5v2.3l-8.2-.5q-2.45-.15-3.1-.15V-1q.9 0 3.15-.3l8.85-1.15V0Zm25.89 0h-15.4v-35h15.25v2.45l-8.75-1.15q-2.3-.3-3.1-.3v15.25q.65 0 3.1-.15l8.2-.5v2.3l-8.2-.5q-2.45-.15-3.1-.15V-1q.9 0 3.15-.3l8.85-1.15V0Zm21.5 0h-11v-35h11q5.8 0 10.1 2.2t6.7 6.12q2.4 3.93 2.4 9.18t-2.4 9.17q-2.4 3.93-6.7 6.13-4.3 2.2-10.1 2.2Zm0-33.8h-7.6v32.6h7.6q7.25 0 11.33-4.3 4.07-4.3 4.07-12t-4.07-12q-4.08-4.3-11.33-4.3Zm70.8 29.5h.3l-.3 3.05q-1.4.6-3.4 1.05-2 .45-4.05.68-2.05.22-3.65.22-4.05 0-7.5-1.38-3.45-1.37-6.03-3.82-2.57-2.45-4.02-5.78-1.45-3.32-1.45-7.22t1.45-7.23q1.45-3.32 4.02-5.77 2.58-2.45 6.03-3.83 3.45-1.37 7.5-1.37 1.65 0 3.7.25 2.05.25 4 .68 1.95.42 3.3.97l-.25 2.8h-.3q-1.85-1.7-4.65-2.6-2.8-.9-5.8-.9-4.5 0-7.93 2.12-3.42 2.13-5.35 5.95-1.92 3.83-1.92 8.93 0 5.15 1.92 8.95 1.93 3.8 5.33 5.92 3.4 2.13 7.95 2.13 3.4 0 6.32-1.1 2.93-1.1 4.78-2.7Zm6.79-13.2q0-3.85 1.38-7.18 1.37-3.32 3.85-5.8 2.47-2.47 5.8-3.85 3.32-1.37 7.17-1.37t7.18 1.37q3.32 1.38 5.8 3.85 2.47 2.48 3.85 5.8 1.37 3.33 1.37 7.18 0 3.85-1.37 7.17-1.38 3.33-3.85 5.8-2.48 2.48-5.8 3.85Q517.7.7 513.85.7q-3.85 0-7.17-1.38-3.33-1.37-5.8-3.85-2.48-2.47-3.85-5.8-1.38-3.32-1.38-7.17Zm3.8 0q0 5.1 1.8 8.92 1.8 3.83 5.05 5.95 3.25 2.13 7.55 2.13t7.55-2.13q3.25-2.12 5.05-5.97 1.8-3.85 1.8-8.9 0-5.05-1.8-8.88-1.8-3.82-5.05-5.97t-7.55-2.15q-4.3 0-7.52 2.12-3.23 2.13-5.05 5.95-1.83 3.83-1.83 8.93Zm38.6 15.4q0-1.15.75-1.88.75-.72 1.85-.72 1.15 0 1.88.72.72.73.72 1.88 0 1.1-.72 1.85-.73.75-1.88.75-1.1 0-1.85-.75t-.75-1.85Zm29.2 2.1v-35h3.4v34q.95 0 3-.3l8.3-1.25V0h-14.7Zm31.94 0h-3.4v-34q-.75 0-3.1.3l-9.8 1.25V-35h29.2v2.55l-9.8-1.25q-2.35-.3-3.1-.3V0Zm32 0h-11v-35h11q5.8 0 10.1 2.2t6.7 6.12q2.4 3.93 2.4 9.18t-2.4 9.17q-2.4 3.93-6.7 6.13-4.3 2.2-10.1 2.2Zm0-33.8h-7.6v32.6h7.6q7.25 0 11.33-4.3 4.07-4.3 4.07-12t-4.07-12q-4.08-4.3-11.33-4.3Zm25.2 31.7q0-1.15.75-1.88.75-.72 1.85-.72 1.15 0 1.87.72.73.73.73 1.88 0 1.1-.73 1.85-.72.75-1.87.75-1.1 0-1.85-.75t-.75-1.85Z" fill="#001f3f" class="slogan-text-1" data-fill-palette-color="secondary"/></svg></g></svg></g></svg></g></svg></g><g><svg viewBox="0 0 207.186 190.741" height="190.741" width="207.186"><g><svg xmlns="http://www.w3.org/2000/svg" xmlns:xlink="http://www.w3.org/1999/xlink" viewBox="9.398 12.34 80.193 73.828" xml:space="preserve" height="190.741" width="207.186" class="icon-icon-0" data-fill-palette-color="accent"><g fill="#3d9970" data-fill-palette-color="accent"><path d="M55.894 49.046v1.992c0 2.509 1.142 3.675 3.328 3.675h2.757c2.606 0 4.379 2.119 4.379 4.375v2.318c0 2.509-1.137 4.021-3.795 4.021h-3.196c-2.796 0-4.253-1.278-4.253-3.889V59.38c0-2.059-1.479-3.41-3.281-3.41h-4.759c-2.38 0-2.959 1.608-2.959 3.41v4.249c0 2.252 1.351 3.024 3.088 3.024h2.931c3.31 0 4.9 1.452 4.9 3.77v1.601c0 2.634 1.498 3.632 3.881 3.632h4.915c2.433 0 3.622-1.284 3.622-3.479v-1.796c0-3.023 1.676-3.988 4.893-3.988h3.384c1.866 0 2.725-1.158 2.725-2.702v-6.24c0-2.058-1.158-3.023-3.409-3.023h-4.054c-2.419 0-4.588-1.829-4.588-5.21v-1.992c0-2.509-1.142-3.675-3.329-3.675h-2.757c-2.606 0-4.379-2.118-4.379-4.374v-2.318c0-2.509 1.138-4.021 3.796-4.021h3.195c2.796 0 4.254 1.278 4.254 3.889v2.158c0 2.059 1.479 3.409 3.281 3.409h4.758c2.38 0 2.959-1.608 2.959-3.409v-4.249c0-2.251-1.351-3.023-3.088-3.023h-2.931c-3.31 0-4.9-1.452-4.9-3.77v-1.516c0-2.633-1.425-3.717-3.808-3.717h-4.988c-2.433 0-3.622 1.284-3.622 3.48v1.795c0 3.023-1.676 3.988-4.893 3.988h-3.385c-1.865 0-2.724 1.158-2.724 2.702v6.24c0 2.059 1.157 3.024 3.41 3.024h4.052c2.421-.003 4.59 1.826 4.59 5.207M86.07 54.482a3.52 3.52 0 0 0 3.521-3.521v-2.688a3.52 3.52 0 0 0-3.521-3.522h-2.688a3.52 3.52 0 0 0-3.521 3.522v2.688a3.52 3.52 0 0 0 3.521 3.521z" data-fill-palette-color="accent"/><path d="M36.547 31.871h3.008c2.251 0 3.409-.965 3.409-3.023v-1.974c.113-3.194 2.224-4.658 4.578-4.658h3.008c2.253 0 3.41-.965 3.41-3.023v-4.151c0-1.544-.858-2.702-2.724-2.702h-5.695c-1.846 0-2.631.855-2.631 2.782v2.434c0 2.195-1.681 4.253-4.171 4.364h-4.194c-1.845 0-2.631.855-2.631 2.782v2.508c0 2.256-1.771 4.375-4.379 4.375h-2.757c-2.188 0-3.329 1.165-3.329 3.674v3.071c0 3.381-2.168 5.21-4.588 5.21h-4.054c-2.251 0-3.409.965-3.409 3.023v6.766c0 2.059 1.158 3.023 3.409 3.023h4.054c2.42 0 4.588 1.049 4.588 4.431v2.412c0 2.509 1.142 3.674 3.329 3.674h2.757c2.607 0 4.379 2.119 4.379 4.375v2.539c0 1.927.786 2.782 2.631 2.782h4.213l-.021.024c2.491.11 4.171 2.169 4.171 4.364v2.433c0 1.927.785 2.782 2.631 2.782h5.694c1.866 0 2.725-1.158 2.725-2.702v-4.151c0-2.059-1.158-3.024-3.409-3.024H47.54c-2.348 0-4.453-1.457-4.576-4.633v-2.053c0-2.059-1.158-3.023-3.409-3.023h-3.008c-2.421 0-4.59-1.828-4.59-5.209V59.74c0-2.509 1.143-3.674 3.33-3.674h2.756c2.607 0 4.38-2.119 4.38-4.375V48.2c0-2.256-1.772-4.375-4.38-4.375h-2.756c-2.188 0-3.33-1.166-3.33-3.674v-3.36c0-3.38 2.169-4.92 4.59-4.92" data-fill-palette-color="accent"/></g></svg></g></svg></g></svg></g></svg></g></svg></g></svg>