<svg width="500" height="500" viewBox="0 0 500 500" fill="none" xmlns="http://www.w3.org/2000/svg"><g clip-path="url(#a)"><g clip-path="url(#b)" fill="#3D9970"><path d="M289.745 248.539v12.414c0 15.635 7.116 22.901 20.739 22.901h17.18c16.24 0 27.288 13.204 27.288 27.263v14.445c0 15.635-7.085 25.057-23.649 25.057h-19.916c-17.423 0-26.503-7.964-26.503-24.235v-13.447c0-12.831-9.216-21.25-20.446-21.25h-29.656c-14.831 0-18.439 10.02-18.439 21.25v26.478c0 14.033 8.419 18.844 19.243 18.844h18.265c20.626 0 30.535 9.048 30.535 23.493v9.977c0 16.414 9.335 22.633 24.185 22.633h30.628c15.161 0 22.571-8.001 22.571-21.68V381.49c0-18.838 10.444-24.851 30.491-24.851h21.088c11.628 0 16.981-7.216 16.981-16.838v-38.885c0-12.825-7.216-18.838-21.244-18.838h-25.263c-15.074 0-28.59-11.398-28.59-32.467v-12.413c0-15.635-7.117-22.901-20.745-22.901h-17.181c-16.239 0-27.288-13.199-27.288-27.257v-14.445c0-15.635 7.092-25.058 23.655-25.058h19.91c17.424 0 26.509 7.964 26.509 24.235v13.448c0 12.831 9.217 21.243 20.446 21.243h29.65c14.832 0 18.44-10.02 18.44-21.243v-26.478c0-14.028-8.419-18.838-19.244-18.838h-18.264c-20.627 0-30.535-9.049-30.535-23.493v-9.448c0-16.407-8.88-23.162-23.73-23.162h-31.083c-15.162 0-22.571 8-22.571 21.686v11.185c0 18.838-10.444 24.852-30.492 24.852h-21.093c-11.622 0-16.975 7.216-16.975 16.838v38.885c0 12.831 7.21 18.844 21.249 18.844h25.251c15.087-.018 28.603 11.379 28.603 32.448m188.045 33.875a21.936 21.936 0 0 0 21.941-21.941v-16.751a21.95 21.95 0 0 0-6.422-15.521 21.95 21.95 0 0 0-15.519-6.427h-16.751a21.95 21.95 0 0 0-15.519 6.427 21.93 21.93 0 0 0-6.422 15.521v16.751a21.936 21.936 0 0 0 21.941 21.941z"/><path d="M169.182 141.511h18.744c14.028 0 21.244-6.013 21.244-18.838v-12.301c.704-19.904 13.859-29.027 28.528-29.027h18.745c14.04 0 21.25-6.013 21.25-18.838V36.64c0-9.622-5.347-16.838-16.975-16.838h-35.489c-11.504 0-16.395 5.328-16.395 17.336v15.168c0 13.678-10.476 26.503-25.993 27.195h-26.135c-11.497 0-16.395 5.328-16.395 17.336v15.629c0 14.058-11.036 27.263-27.288 27.263h-17.18c-13.636 0-20.746 7.26-20.746 22.895v19.137c0 21.069-13.51 32.467-28.59 32.467H21.244C7.216 214.228 0 220.242 0 233.066v42.163c0 12.831 7.216 18.838 21.244 18.838h25.263c15.08 0 28.59 6.537 28.59 27.613v15.03c0 15.635 7.117 22.895 20.745 22.895h17.181c16.245 0 27.288 13.205 27.288 27.263v15.822c0 12.009 4.898 17.337 16.395 17.337h26.254l-.131.149c15.523.686 25.992 13.517 25.992 27.195v15.162c0 12.008 4.892 17.336 16.395 17.336h35.483c11.628 0 16.981-7.216 16.981-16.838v-25.867c0-12.831-7.216-18.845-21.243-18.845h-18.751c-14.632 0-27.749-9.079-28.516-28.871v-12.793c0-12.831-7.216-18.838-21.244-18.838h-18.744c-15.087 0-28.603-11.392-28.603-32.461V315.18c0-15.635 7.122-22.895 20.751-22.895h17.174c16.246 0 27.295-13.205 27.295-27.263v-21.755c0-14.058-11.043-27.263-27.295-27.263H161.33c-13.635 0-20.751-7.266-20.751-22.895v-20.938c0-21.063 13.516-30.66 28.603-30.66"/></g></g><defs><clipPath id="a"><path fill="#fff" d="M0 19.802h499.731v460.067H0z"/></clipPath><clipPath id="b"><path fill="#fff" d="M0 19.802h499.731v460.067H0z"/></clipPath></defs></svg>