<svg width="500" height="500" viewBox="0 0 500 500" fill="none" xmlns="http://www.w3.org/2000/svg">
<g clip-path="url(#clip0_88_39)">
<g clip-path="url(#clip1_88_39)">
<path d="M289.745 248.539V260.953C289.745 276.588 296.861 283.854 310.484 283.854H327.664C343.904 283.854 354.952 297.058 354.952 311.117V325.562C354.952 341.197 347.867 350.619 331.303 350.619H311.387C293.964 350.619 284.884 342.655 284.884 326.384V312.937C284.884 300.106 275.668 291.687 264.438 291.687H234.782C219.951 291.687 216.343 301.707 216.343 312.937V339.415C216.343 353.448 224.762 358.259 235.586 358.259H253.851C274.477 358.259 284.386 367.307 284.386 381.752V391.729C284.386 408.143 293.721 414.362 308.571 414.362H339.199C354.36 414.362 361.77 406.361 361.77 392.682V381.49C361.77 362.652 372.214 356.639 392.261 356.639H413.349C424.977 356.639 430.33 349.423 430.33 339.801V300.916C430.33 288.091 423.114 282.078 409.086 282.078H383.823C368.749 282.078 355.233 270.68 355.233 249.611V237.198C355.233 221.563 348.116 214.297 334.488 214.297H317.307C301.068 214.297 290.019 201.098 290.019 187.04V172.595C290.019 156.96 297.111 147.537 313.674 147.537H333.584C351.008 147.537 360.093 155.501 360.093 171.772V185.22C360.093 198.051 369.31 206.463 380.539 206.463H410.189C425.021 206.463 428.629 196.443 428.629 185.22V158.742C428.629 144.714 420.21 139.904 409.385 139.904H391.121C370.494 139.904 360.586 130.855 360.586 116.411V106.963C360.586 90.5556 351.706 83.8005 336.856 83.8005H305.773C290.611 83.8005 283.202 91.8019 283.202 105.487V116.672C283.202 135.51 272.758 141.524 252.71 141.524H231.617C219.995 141.524 214.642 148.74 214.642 158.362V197.247C214.642 210.078 221.852 216.091 235.891 216.091H261.142C276.229 216.073 289.745 227.47 289.745 248.539Z" fill="#ffffff"/>
<path d="M477.79 282.414C480.671 282.415 483.525 281.848 486.187 280.746C488.85 279.643 491.269 278.027 493.306 275.989C495.344 273.952 496.96 271.533 498.063 268.87C499.165 266.208 499.732 263.354 499.731 260.473V243.722C499.733 240.84 499.166 237.986 498.064 235.323C496.962 232.659 495.346 230.24 493.309 228.201C491.271 226.163 488.852 224.546 486.189 223.444C483.526 222.341 480.672 221.774 477.79 221.774H461.039C458.157 221.774 455.303 222.341 452.64 223.444C449.977 224.546 447.558 226.163 445.52 228.201C443.482 230.24 441.866 232.659 440.764 235.323C439.662 237.986 439.096 240.84 439.098 243.722V260.473C439.097 263.354 439.664 266.208 440.766 268.87C441.869 271.533 443.485 273.952 445.522 275.989C447.56 278.027 449.979 279.643 452.642 280.746C455.304 281.848 458.158 282.415 461.039 282.414H477.79Z" fill="#ffffff"/>
<path d="M169.182 141.511H187.926C201.954 141.511 209.17 135.498 209.17 122.673V110.372C209.874 90.4684 223.029 81.3453 237.698 81.3453H256.443C270.483 81.3453 277.693 75.3318 277.693 62.5072V36.6398C277.693 27.0182 272.346 19.802 260.718 19.802H225.229C213.725 19.802 208.834 25.13 208.834 37.1383V52.306C208.834 65.9844 198.358 78.8091 182.841 79.5008H156.706C145.209 79.5008 140.311 84.8288 140.311 96.8371V112.466C140.311 126.524 129.275 139.729 113.023 139.729H95.8421C82.2073 139.729 75.0971 146.989 75.0971 162.624V181.761C75.0971 202.83 61.5869 214.228 46.5065 214.228H21.2435C7.2162 214.228 0 220.242 0 233.066V275.229C0 288.06 7.2162 294.067 21.2435 294.067H46.5065C61.5869 294.067 75.0971 300.604 75.0971 321.68V336.71C75.0971 352.345 82.2136 359.605 95.8421 359.605H113.023C129.268 359.605 140.311 372.81 140.311 386.868V402.69C140.311 414.699 145.209 420.027 156.706 420.027H182.96L182.829 420.176C198.352 420.862 208.821 433.693 208.821 447.371V462.533C208.821 474.541 213.713 479.869 225.216 479.869H260.699C272.327 479.869 277.68 472.653 277.68 463.031V437.164C277.68 424.333 270.464 418.319 256.437 418.319H237.686C223.054 418.319 209.937 409.24 209.17 389.448V376.655C209.17 363.824 201.954 357.817 187.926 357.817H169.182C154.095 357.817 140.579 346.425 140.579 325.356V315.18C140.579 299.545 147.701 292.285 161.33 292.285H178.504C194.75 292.285 205.799 279.08 205.799 265.022V243.267C205.799 229.209 194.756 216.004 178.504 216.004H161.33C147.695 216.004 140.579 208.738 140.579 193.109V172.171C140.579 151.108 154.095 141.511 169.182 141.511Z" fill="#ffffff"/>
</g>
</g>
<defs>
<clipPath id="clip0_88_39">
<rect width="499.731" height="460.067" fill="white" transform="translate(0 19.802)"/>
</clipPath>
<clipPath id="clip1_88_39">
<rect width="499.731" height="460.067" fill="white" transform="translate(0 19.802)"/>
</clipPath>
</defs>
</svg>
